<?xml version="1.0" encoding="UTF-8" standalone="no"?>
<!-- Created with Inkscape (http://www.inkscape.org/) -->

<svg
   xmlns:dc="http://purl.org/dc/elements/1.1/"
   xmlns:cc="http://creativecommons.org/ns#"
   xmlns:rdf="http://www.w3.org/1999/02/22-rdf-syntax-ns#"
   xmlns:svg="http://www.w3.org/2000/svg"
   xmlns="http://www.w3.org/2000/svg"
   xmlns:sodipodi="http://sodipodi.sourceforge.net/DTD/sodipodi-0.dtd"
   xmlns:inkscape="http://www.inkscape.org/namespaces/inkscape"
   width="1052.3622"
   height="744.09448"
   id="svg2"
   version="1.1"
   inkscape:version="0.92.1 r15371"
   sodipodi:docname="gp-equation-en2.svg">
  <sodipodi:namedview
     id="base"
     pagecolor="#ffffff"
     bordercolor="#666666"
     borderopacity="1.0"
     inkscape:pageopacity="0.0"
     inkscape:pageshadow="2"
     inkscape:zoom="0.72840212"
     inkscape:cx="342.44171"
     inkscape:cy="473.71246"
     inkscape:document-units="px"
     inkscape:current-layer="content"
     showgrid="false"
     inkscape:window-width="1920"
     inkscape:window-height="1016"
     inkscape:window-x="0"
     inkscape:window-y="27"
     inkscape:window-maximized="1" />
  <defs
     id="defs4">
    <inkscape:perspective
       sodipodi:type="inkscape:persp3d"
       inkscape:vp_x="0 : 372.04724 : 1"
       inkscape:vp_y="0 : 1000 : 0"
       inkscape:vp_z="1052.3622 : 372.04724 : 1"
       inkscape:persp3d-origin="526.18109 : 248.03149 : 1"
       id="perspective70" />
  </defs>
  <metadata
     id="metadata7">
    <rdf:RDF>
      <cc:Work
         rdf:about="">
        <dc:format>image/svg+xml</dc:format>
        <dc:type
           rdf:resource="http://purl.org/dc/dcmitype/StillImage" />
        <dc:title></dc:title>
      </cc:Work>
    </rdf:RDF>
  </metadata>
  <g
     transform="translate(0,-308.2677)"
     id="layer1"
     inkscape:groupmode="layer"
     inkscape:label="Calque 1">
    <g
       transform="translate(-200.43876,100.21937)"
       id="g3085">
      <g
         style="font-style:normal;font-variant:normal;font-weight:normal;font-stretch:normal;letter-spacing:normal;word-spacing:normal;text-anchor:start;fill:none;stroke:#000000;stroke-linecap:butt;stroke-linejoin:miter;stroke-miterlimit:10.43299961;stroke-opacity:1;stroke-dasharray:none;stroke-dashoffset:0"
         id="content"
         transform="matrix(1.0629921,0,0,-1.0629921,-186.02362,789.27165)"
         xml:space="preserve"
         stroke-miterlimit="10.433"
         font-style="normal"
         font-variant="normal"
         font-weight="normal"
         font-stretch="normal"
         font-size-adjust="none"
         letter-spacing="normal"
         word-spacing="normal"><path
           style="fill:#000000;stroke-width:0"
           inkscape:connector-curvature="0"
           d="m 517.48,394.25 0,0.02 0,0.03 0,0.01 0,0.02 0,0.01 -0.01,0.02 0,0.01 -0.01,0.02 -0.01,0.02 -0.01,0.02 -0.01,0.02 -0.02,0.03 -0.01,0.02 -0.02,0.03 -0.02,0.03 -0.03,0.03 -0.02,0.03 -0.03,0.04 -0.02,0.02 -0.01,0.02 -0.02,0.02 -0.02,0.02 -0.02,0.02 -0.02,0.03 -0.02,0.02 -0.02,0.02 -0.02,0.03 -0.03,0.02 -0.02,0.03 -0.03,0.03 -0.02,0.03 -0.03,0.03 -0.03,0.03 -0.03,0.03 -0.03,0.03 -0.03,0.03 -0.04,0.04 -0.03,0.03 -0.04,0.04 -0.03,0.03 -0.04,0.04 -0.04,0.04 c -6.22,6.28 -7.81,15.69 -7.81,23.31 0,8.67 1.89,17.35 8.01,23.56 0.64,0.61 0.64,0.71 0.64,0.86 0,0.35 -0.18,0.49 -0.48,0.49 -0.5,0 -4.98,-3.38 -7.92,-9.7 -2.55,-5.49 -3.14,-11.02 -3.14,-15.21 0,-3.89 0.54,-9.9 3.28,-15.54 2.98,-6.13 7.28,-9.36 7.78,-9.36 0.3,0 0.48,0.14 0.48,0.5 z"
           id="path3090" /><path
           style="fill:#000000;stroke-width:0"
           inkscape:connector-curvature="0"
           d="m 547.02,426.18 -0.17,-0.05 -0.16,-0.05 -0.15,-0.07 -0.15,-0.07 -0.15,-0.07 -0.14,-0.08 -0.13,-0.09 -0.13,-0.09 -0.12,-0.1 -0.12,-0.1 -0.11,-0.1 -0.11,-0.11 -0.1,-0.11 -0.1,-0.11 -0.09,-0.12 -0.09,-0.12 -0.08,-0.12 -0.08,-0.12 -0.07,-0.13 -0.06,-0.13 -0.06,-0.12 -0.06,-0.13 -0.05,-0.13 -0.04,-0.13 -0.04,-0.12 -0.03,-0.13 -0.03,-0.13 -0.03,-0.12 -0.01,-0.13 -0.02,-0.12 -0.01,-0.12 0,-0.11 c 0,-1.11 0.85,-2.3 2.49,-2.3 1.75,0 3.59,1.44 3.59,3.89 0,2.64 -2.64,4.37 -5.69,4.37 -2.82,0 -4.67,-2.14 -5.32,-3.03 -1.24,2.1 -4.04,3.03 -6.88,3.03 -6.28,0 -9.66,-6.12 -9.66,-7.76 0,-0.7 0.74,-0.7 1.19,-0.7 0.6,0 0.95,0 1.14,0.65 1.46,4.53 5.05,6.02 7.08,6.02 1.89,0 2.8,-0.89 2.8,-2.49 0,-0.95 -0.71,-3.68 -1.16,-5.48 l -1.69,-6.83 c -0.75,-3.03 -2.54,-4.53 -4.23,-4.53 -0.25,0 -1.39,0 -2.39,0.75 1.8,0.5 2.68,2.19 2.68,3.44 0,1.09 -0.84,2.29 -2.48,2.29 -1.75,0 -3.59,-1.45 -3.59,-3.89 0,-2.64 2.64,-4.39 5.69,-4.39 2.82,0 4.67,2.16 5.32,3.05 1.25,-2.09 4.03,-3.05 6.88,-3.05 6.28,0 9.65,6.14 9.65,7.78 0,0.71 -0.73,0.71 -1.18,0.71 -0.6,0 -0.96,0 -1.14,-0.66 -1.46,-4.53 -5.03,-6.03 -7.08,-6.03 -1.89,0 -2.8,0.91 -2.8,2.5 0,1.05 0.66,3.69 1.1,5.53 0.35,1.3 1.5,5.97 1.75,6.77 0.75,3 2.48,4.53 4.23,4.53 0.25,0 1.39,0 2.39,-0.74 z"
           id="path3092" /><path
           style="fill:#000000;stroke-width:0"
           inkscape:connector-curvature="0"
           d="m 563.3,406.25 0,0.3 -0.01,0.3 -0.02,0.29 -0.02,0.28 -0.03,0.27 -0.04,0.26 -0.05,0.26 -0.05,0.24 -0.06,0.24 -0.06,0.23 -0.07,0.22 -0.08,0.21 -0.08,0.2 -0.09,0.19 -0.1,0.19 -0.1,0.17 -0.1,0.16 -0.12,0.16 -0.11,0.14 -0.13,0.13 -0.12,0.13 -0.14,0.11 -0.14,0.1 -0.14,0.1 -0.15,0.08 -0.15,0.07 -0.16,0.06 -0.17,0.05 -0.16,0.04 -0.18,0.03 -0.17,0.01 -0.18,0.01 c -1.64,0 -2.64,-1.25 -2.64,-2.64 0,-1.34 1,-2.64 2.64,-2.64 0.59,0 1.25,0.2 1.75,0.64 0.14,0.11 0.2,0.16 0.25,0.16 0.04,0 0.09,-0.05 0.09,-0.75 0,-3.69 -1.73,-6.68 -3.39,-8.32 -0.55,-0.54 -0.55,-0.65 -0.55,-0.79 0,-0.36 0.25,-0.55 0.5,-0.55 0.55,0 4.53,3.83 4.53,9.66 z"
           id="path3094" /><path
           style="fill:#000000;stroke-width:0"
           inkscape:connector-curvature="0"
           d="m 605.41,424.73 0,0.21 -0.01,0.2 -0.01,0.2 -0.02,0.19 -0.02,0.18 -0.03,0.18 -0.03,0.17 -0.04,0.16 -0.04,0.16 -0.04,0.16 -0.05,0.14 -0.05,0.14 -0.05,0.13 -0.06,0.13 -0.07,0.12 -0.06,0.12 -0.07,0.1 -0.07,0.1 -0.08,0.1 -0.08,0.09 -0.08,0.08 -0.08,0.07 -0.08,0.07 -0.09,0.06 -0.09,0.05 -0.09,0.05 -0.1,0.04 -0.09,0.03 -0.1,0.02 -0.1,0.02 -0.1,0.01 -0.1,0 c -1.3,0 -2.65,-1.18 -2.65,-2.34 0,-0.48 0.24,-1.03 0.74,-1.48 0.86,-0.75 1.75,-2.1 1.75,-4.19 0,-2 -0.95,-4.83 -2.49,-7.13 -1.5,-2.14 -3.34,-3.82 -5.68,-3.82 -2.85,0 -4.39,1.78 -4.83,4.46 0.55,1.3 1.69,4.49 1.69,5.9 0,0.59 -0.25,1.09 -0.89,1.09 -0.41,0 -0.96,-0.11 -1.35,-0.84 -0.54,-1 -1.15,-4.24 -1.15,-6.04 -1.64,-2.34 -3.63,-4.57 -6.77,-4.57 -3.3,0 -4.34,2.93 -4.34,5.71 0,6.24 5.09,11.47 5.09,12.11 0,0.55 -0.4,0.96 -0.95,0.96 -0.66,0 -1,-0.66 -1.3,-1.11 -2.55,-3.69 -4.44,-9.61 -4.44,-14.14 0,-3.44 1.16,-7.13 5.24,-7.13 3.53,0 5.87,2.49 7.67,5.24 0.45,-2.89 2.39,-5.24 5.48,-5.24 3.9,0 6.28,3.03 8.07,6.78 1.2,2.44 3.09,9.21 3.09,12.3 z"
           id="path3096" /><path
           style="fill:#000000;stroke-width:0"
           inkscape:connector-curvature="0"
           d="m 622.42,418.65 0,0.37 -0.01,0.39 -0.01,0.39 -0.01,0.41 -0.04,0.84 -0.06,0.88 -0.08,0.92 -0.11,0.95 -0.13,0.97 -0.17,1.01 -0.19,1.02 -0.23,1.03 -0.27,1.05 -0.31,1.06 -0.34,1.07 -0.4,1.07 -0.21,0.53 -0.23,0.53 -0.23,0.53 -0.25,0.53 c -2.99,6.12 -7.27,9.36 -7.77,9.36 -0.3,0 -0.5,-0.19 -0.5,-0.49 0,-0.15 0,-0.25 0.94,-1.15 4.89,-4.92 7.73,-12.85 7.73,-23.27 0,-8.51 -1.84,-17.28 -8.03,-23.56 -0.64,-0.59 -0.64,-0.7 -0.64,-0.84 0,-0.3 0.2,-0.5 0.5,-0.5 0.5,0 4.97,3.39 7.92,9.71 2.53,5.47 3.13,11 3.13,15.19 z"
           id="path3098" /><path
           style="fill:#000000;stroke-width:0"
           inkscape:connector-curvature="0"
           d="m 725.42,422.5 0.14,0 0.14,0 0.15,0 0.07,0.01 0.07,0 0.07,0.01 0.07,0.01 0.07,0.01 0.07,0.01 0.07,0.01 0.07,0.02 0.06,0.02 0.07,0.02 0.06,0.02 0.06,0.03 0.05,0.03 0.05,0.04 0.05,0.03 0.05,0.05 0.04,0.04 0.04,0.05 0.02,0.03 0.02,0.03 0.02,0.02 0.01,0.03 0.02,0.03 0.01,0.04 0.01,0.03 0.01,0.04 0.01,0.03 0.01,0.04 0.01,0.04 0,0.04 0.01,0.04 0,0.04 0,0.04 0,0.05 c 0,1 -0.95,1 -1.63,1 h -29.85 c -0.7,0 -1.64,0 -1.64,-1 0,-0.98 0.94,-0.98 1.69,-0.98 z"
           id="path3100" /><path
           style="fill:#000000;stroke-width:0"
           inkscape:connector-curvature="0"
           d="m 725.47,412.82 0.06,0 0.07,0 0.13,0.01 0.14,0 0.07,0 0.07,0.01 0.07,0.01 0.07,0 0.07,0.01 0.07,0.02 0.06,0.01 0.07,0.02 0.06,0.02 0.06,0.02 0.06,0.02 0.06,0.03 0.05,0.03 0.06,0.04 0.05,0.04 0.04,0.04 0.05,0.05 0.02,0.02 0.02,0.03 0.01,0.02 0.02,0.03 0.02,0.03 0.01,0.03 0.02,0.03 0.01,0.03 0.01,0.04 0.01,0.03 0.01,0.04 0.01,0.04 0.01,0.04 0,0.04 0.01,0.04 0,0.04 0,0.05 0,0.04 c 0,1 -0.95,1 -1.68,1 h -29.75 c -0.75,0 -1.69,0 -1.69,-1 0,-1 0.94,-1 1.64,-1 z"
           id="path3102" /><path
           style="fill:#000000;stroke-width:0"
           inkscape:connector-curvature="0"
           d="m 815.67,426.23 -0.13,-0.03 -0.12,-0.03 -0.12,-0.03 -0.12,-0.03 -0.11,-0.04 -0.11,-0.04 -0.11,-0.04 -0.1,-0.05 -0.1,-0.04 -0.1,-0.05 -0.09,-0.05 -0.09,-0.05 -0.18,-0.11 -0.16,-0.12 -0.15,-0.12 -0.14,-0.12 -0.13,-0.13 -0.11,-0.13 -0.11,-0.14 -0.1,-0.14 -0.09,-0.14 -0.09,-0.14 -0.07,-0.13 -0.07,-0.14 -0.06,-0.14 -0.05,-0.13 -0.05,-0.13 -0.04,-0.13 -0.03,-0.12 -0.03,-0.12 -0.02,-0.11 -0.02,-0.11 -0.02,-0.1 -0.01,-0.09 -0.01,-0.08 -0.01,-0.07 0,-0.06 0,-0.05 c 0,-1.11 0.85,-2.3 2.5,-2.3 1.69,0 3.58,1.39 3.58,3.94 0,2.29 -1.8,4.32 -4.88,4.32 -2.79,0 -5.14,-1.39 -6.62,-2.98 -1.2,2.3 -4.05,2.98 -5.83,2.98 -1.84,0 -3.25,-1.04 -4.34,-2.84 -1.19,-1.94 -1.89,-4.62 -1.89,-4.92 0,-0.7 0.75,-0.7 1.2,-0.7 0.55,0 0.73,0 0.98,0.25 0.11,0.09 0.11,0.2 0.41,1.45 0.94,3.78 2.05,4.97 3.39,4.97 0.73,0 1.14,-0.49 1.14,-1.78 0,-0.91 -0.16,-1.46 -0.7,-3.8 -0.25,-0.84 -1.05,-4.13 -1.39,-5.38 -0.2,-0.95 -0.75,-3.18 -1,-4.09 -0.3,-1.28 -0.89,-3.53 -0.89,-3.87 0,-1.05 0.79,-2.21 2.34,-2.21 1,0 2.73,0.61 3.28,2.64 0.05,0.16 3.44,13.71 3.49,14 0.2,0.75 0.2,0.86 0.86,1.61 1.14,1.44 2.98,2.88 5.47,2.88 1.25,0 1.79,-0.55 1.95,-0.69 z"
           id="path3104" /><path
           style="fill:#000000;stroke-width:0"
           inkscape:connector-curvature="0"
           d="m 837.98,394.25 0,0.02 0,0.03 0,0.01 0,0.02 0,0.01 -0.01,0.02 0,0.01 -0.01,0.02 -0.01,0.02 -0.01,0.02 -0.01,0.02 -0.02,0.03 -0.01,0.02 -0.02,0.03 -0.02,0.03 -0.03,0.03 -0.02,0.03 -0.03,0.04 -0.02,0.02 -0.01,0.02 -0.02,0.02 -0.02,0.02 -0.02,0.02 -0.02,0.03 -0.02,0.02 -0.02,0.02 -0.02,0.03 -0.03,0.02 -0.02,0.03 -0.03,0.03 -0.02,0.03 -0.03,0.03 -0.03,0.03 -0.03,0.03 -0.03,0.03 -0.03,0.03 -0.04,0.04 -0.03,0.03 -0.04,0.04 -0.03,0.03 -0.04,0.04 -0.04,0.04 c -6.22,6.28 -7.81,15.69 -7.81,23.31 0,8.67 1.89,17.35 8.01,23.56 0.64,0.61 0.64,0.71 0.64,0.86 0,0.35 -0.18,0.49 -0.48,0.49 -0.5,0 -4.98,-3.38 -7.92,-9.7 -2.55,-5.49 -3.14,-11.02 -3.14,-15.21 0,-3.89 0.54,-9.9 3.28,-15.54 2.98,-6.13 7.28,-9.36 7.78,-9.36 0.3,0 0.48,0.14 0.48,0.5 z"
           id="path3106" /><path
           style="fill:#000000;stroke-width:0"
           inkscape:connector-curvature="0"
           d="m 867.52,426.18 -0.17,-0.05 -0.16,-0.05 -0.15,-0.07 -0.15,-0.07 -0.15,-0.07 -0.14,-0.08 -0.13,-0.09 -0.13,-0.09 -0.12,-0.1 -0.12,-0.1 -0.11,-0.1 -0.11,-0.11 -0.1,-0.11 -0.1,-0.11 -0.09,-0.12 -0.09,-0.12 -0.08,-0.12 -0.08,-0.12 -0.07,-0.13 -0.06,-0.13 -0.06,-0.12 -0.06,-0.13 -0.05,-0.13 -0.04,-0.13 -0.04,-0.12 -0.03,-0.13 -0.03,-0.13 -0.03,-0.12 -0.01,-0.13 -0.02,-0.12 -0.01,-0.12 0,-0.11 c 0,-1.11 0.85,-2.3 2.49,-2.3 1.75,0 3.59,1.44 3.59,3.89 0,2.64 -2.64,4.37 -5.69,4.37 -2.82,0 -4.67,-2.14 -5.32,-3.03 -1.24,2.1 -4.04,3.03 -6.88,3.03 -6.28,0 -9.66,-6.12 -9.66,-7.76 0,-0.7 0.74,-0.7 1.19,-0.7 0.6,0 0.95,0 1.14,0.65 1.46,4.53 5.05,6.02 7.08,6.02 1.89,0 2.8,-0.89 2.8,-2.49 0,-0.95 -0.71,-3.68 -1.16,-5.48 l -1.69,-6.83 c -0.75,-3.03 -2.54,-4.53 -4.23,-4.53 -0.25,0 -1.39,0 -2.39,0.75 1.8,0.5 2.68,2.19 2.68,3.44 0,1.09 -0.84,2.29 -2.48,2.29 -1.75,0 -3.59,-1.45 -3.59,-3.89 0,-2.64 2.64,-4.39 5.69,-4.39 2.82,0 4.67,2.16 5.32,3.05 1.25,-2.09 4.03,-3.05 6.88,-3.05 6.28,0 9.65,6.14 9.65,7.78 0,0.71 -0.73,0.71 -1.18,0.71 -0.6,0 -0.96,0 -1.14,-0.66 -1.46,-4.53 -5.03,-6.03 -7.08,-6.03 -1.89,0 -2.8,0.91 -2.8,2.5 0,1.05 0.66,3.69 1.1,5.53 0.35,1.3 1.5,5.97 1.75,6.77 0.75,3 2.48,4.53 4.23,4.53 0.25,0 1.39,0 2.39,-0.74 z"
           id="path3108" /><path
           style="fill:#000000;stroke-width:0"
           inkscape:connector-curvature="0"
           d="m 888.09,418.65 -0.01,0.37 0,0.39 -0.01,0.39 -0.01,0.41 -0.04,0.84 -0.06,0.88 -0.08,0.92 -0.11,0.95 -0.14,0.97 -0.16,1.01 -0.2,1.02 -0.23,1.03 -0.26,1.05 -0.31,1.06 -0.35,1.07 -0.39,1.07 -0.21,0.53 -0.23,0.53 -0.24,0.53 -0.25,0.53 c -2.98,6.12 -7.26,9.36 -7.76,9.36 -0.3,0 -0.5,-0.19 -0.5,-0.49 0,-0.15 0,-0.25 0.94,-1.15 4.89,-4.92 7.73,-12.85 7.73,-23.27 0,-8.51 -1.84,-17.28 -8.03,-23.56 -0.64,-0.59 -0.64,-0.7 -0.64,-0.84 0,-0.3 0.2,-0.5 0.5,-0.5 0.5,0 4.97,3.39 7.92,9.71 2.53,5.47 3.13,11 3.13,15.19 z"
           id="path3110" /><path
           style="fill:#000000;stroke-width:0"
           inkscape:connector-curvature="0"
           d="m 913.61,418.65 0,0.14 -0.01,0.13 -0.02,0.13 -0.02,0.13 -0.03,0.13 -0.04,0.13 -0.04,0.12 -0.05,0.12 -0.05,0.11 -0.06,0.12 -0.06,0.11 -0.07,0.11 -0.07,0.1 -0.08,0.1 -0.08,0.1 -0.09,0.09 -0.09,0.08 -0.1,0.09 -0.1,0.08 -0.1,0.07 -0.11,0.07 -0.11,0.06 -0.11,0.06 -0.12,0.05 -0.12,0.05 -0.12,0.04 -0.13,0.04 -0.13,0.03 -0.13,0.02 -0.13,0.02 -0.13,0.01 -0.14,0 c -1.44,0 -2.64,-1.18 -2.64,-2.64 0,-1.44 1.2,-2.64 2.64,-2.64 1.46,0 2.64,1.2 2.64,2.64 z"
           id="path3112" /><path
           style="fill:#000000;stroke-width:0"
           inkscape:connector-curvature="0"
           d="m 930.01,398.03 0,-0.01 -0.01,0 0,-0.01 0,-0.01 0,0 -0.01,-0.01 0,-0.01 0,-0.01 -0.01,-0.01 0,-0.01 -0.01,-0.03 -0.01,-0.02 0,-0.03 -0.01,-0.03 -0.01,-0.03 -0.01,-0.03 -0.01,-0.03 -0.01,-0.04 0,-0.03 -0.02,-0.07 -0.02,-0.07 -0.01,-0.03 0,-0.03 -0.01,-0.03 -0.01,-0.03 0,-0.03 -0.01,-0.03 -0.01,-0.02 0,-0.03 0,-0.01 0,-0.01 -0.01,-0.01 0,-0.01 0,0 0,-0.01 0,-0.01 0,0 0,-0.01 0,0 0,-0.01 -0.01,0 c 0,-0.7 0.75,-0.7 1.21,-0.7 0.98,0 0.98,0.11 1.28,1.15 0.16,0.8 3.14,12.75 3.2,12.85 2.08,-3.49 5.92,-4.92 9.91,-4.92 10.01,0 15.59,7.62 15.59,14.14 0,3.48 -1.54,5.39 -3.19,6.62 1.8,1.5 3.85,4.74 3.85,8.17 0,4.24 -3.1,6.63 -7.78,6.63 l -0.25,-1.78 c 1.84,0 2.93,-0.91 2.93,-2.85 0,-1.54 -1.18,-6.67 -2.28,-8.62 h 0 c -1.65,0.4 -3.04,0.4 -3.98,0.4 -1.61,0 -5.64,0 -5.64,-2.68 0,-2.1 3,-2.1 4.73,-2.1 l 0.05,1.78 c -0.19,0 -2.39,0 -2.39,0.41 0,0.8 2.45,0.8 3.09,0.8 0.89,0 1.5,0 2.44,-0.35 h 0 c -1.19,-0.86 -2.44,-0.86 -3.14,-0.86 l -0.05,-1.78 c 0.85,0 3.1,0 5.33,0.94 0.41,-0.75 0.55,-1.73 0.55,-2.59 0,-1.78 -1.3,-7.82 -2.83,-10.41 -1.55,-2.44 -3.98,-4.08 -7.13,-4.08 -4.64,0 -8.53,2.78 -8.53,7.27 0,1 0.25,2.04 0.36,2.54 0.75,2.94 2.35,9.47 2.94,11.66 1.59,5.42 7.63,10.52 13.55,10.52 l 0.25,1.78 c -7.13,0 -14.5,-5.53 -16.3,-12.75 z"
           id="path3114" /><path
           style="fill:#000000;stroke-width:0"
           inkscape:connector-curvature="0"
           d="m 1022.7,417.65 h 13.9 c 0.7,0 1.6,0 1.6,1 0,1 -0.9,1 -1.6,1 h -13.9 v 13.96 c 0,0.68 0,1.64 -1,1.64 -1,0 -1,-0.96 -1,-1.64 v -13.96 h -13.9 c -0.7,0 -1.7,0 -1.7,-1 0,-1 1,-1 1.7,-1 h 13.9 v -13.94 c 0,-0.7 0,-1.65 1,-1.65 1,0 1,0.95 1,1.65 z"
           id="path3116" /><path
           style="fill:#000000;stroke-width:0"
           inkscape:connector-curvature="0"
           d="m 1115.7,439.03 0,0.04 0,0.04 0.1,0.04 0,0.04 0,0.04 0,0.05 0,0.04 0,0.05 0,0.04 0,0.05 0,0.05 0,0.05 0.1,0.05 0,0.06 0,0.05 0,0.03 0,0.03 c 0,0.45 -0.3,0.45 -1.3,0.45 h -21 c -1.2,0 -1.3,-0.05 -1.5,-1 l -2.8,-8.97 c -0.1,-0.25 -0.1,-0.59 -0.1,-0.7 0,-0.05 0,-0.55 0.6,-0.55 0.4,0 0.5,0.36 0.6,0.5 1.9,5.89 4.5,9.17 12.3,9.17 h 8.1 l -27.9,-31.14 c 0,-0.04 -0.2,-0.75 -0.2,-0.89 0,-0.45 0.4,-0.45 1.3,-0.45 h 21.7 c 1.1,0 1.2,0.05 1.5,1 l 3.5,11 c 0.1,0.2 0.2,0.56 0.2,0.75 0,0.25 -0.2,0.55 -0.6,0.55 -0.5,0 -0.5,-0.19 -0.9,-1.24 -2.2,-6.78 -4.5,-10.37 -13,-10.37 h -8.5 z"
           id="path3118" /><path
           style="fill:#000000;stroke-width:0"
           inkscape:connector-curvature="0"
           d="m 1133.9,394.25 0,0.02 0,0.03 0,0.01 0,0.02 0,0.01 0,0.02 0,0.01 0,0.02 0,0.02 -0.1,0.02 0,0.02 0,0.03 0,0.02 0,0.03 0,0.03 -0.1,0.03 0,0.03 0,0.04 0,0.02 -0.1,0.02 0,0.02 0,0.02 0,0.02 0,0.03 0,0.02 -0.1,0.02 0,0.03 0,0.02 0,0.03 -0.1,0.03 0,0.03 0,0.03 0,0.03 -0.1,0.03 0,0.03 0,0.03 -0.1,0.04 0,0.03 0,0.04 -0.1,0.03 0,0.04 -0.1,0.04 c -6.2,6.28 -7.8,15.69 -7.8,23.31 0,8.67 1.9,17.35 8,23.56 0.7,0.61 0.7,0.71 0.7,0.86 0,0.35 -0.2,0.49 -0.5,0.49 -0.5,0 -5,-3.38 -7.9,-9.7 -2.6,-5.49 -3.2,-11.02 -3.2,-15.21 0,-3.89 0.6,-9.9 3.3,-15.54 3,-6.13 7.3,-9.36 7.8,-9.36 0.3,0 0.5,0.14 0.5,0.5 z"
           id="path3120" /><path
           style="fill:#000000;stroke-width:0"
           inkscape:connector-curvature="0"
           d="m 1163.4,426.18 -0.1,-0.05 -0.2,-0.05 -0.2,-0.07 -0.1,-0.07 -0.2,-0.07 -0.1,-0.08 -0.1,-0.09 -0.2,-0.09 -0.1,-0.1 -0.1,-0.1 -0.1,-0.1 -0.1,-0.11 -0.1,-0.11 -0.1,-0.11 -0.1,-0.12 -0.1,-0.12 -0.1,-0.12 -0.1,-0.12 0,-0.13 -0.1,-0.13 -0.1,-0.12 0,-0.13 -0.1,-0.13 0,-0.13 0,-0.12 -0.1,-0.13 0,-0.13 0,-0.12 0,-0.13 -0.1,-0.12 0,-0.12 0,-0.11 c 0,-1.11 0.9,-2.3 2.5,-2.3 1.8,0 3.6,1.44 3.6,3.89 0,2.64 -2.6,4.37 -5.7,4.37 -2.8,0 -4.7,-2.14 -5.3,-3.03 -1.2,2.1 -4,3.03 -6.9,3.03 -6.3,0 -9.6,-6.12 -9.6,-7.76 0,-0.7 0.7,-0.7 1.1,-0.7 0.7,0 1,0 1.2,0.65 1.5,4.53 5,6.02 7.1,6.02 1.9,0 2.8,-0.89 2.8,-2.49 0,-0.95 -0.7,-3.68 -1.2,-5.48 l -1.7,-6.83 c -0.7,-3.03 -2.5,-4.53 -4.2,-4.53 -0.3,0 -1.4,0 -2.4,0.75 1.8,0.5 2.7,2.19 2.7,3.44 0,1.09 -0.9,2.29 -2.5,2.29 -1.8,0 -3.6,-1.45 -3.6,-3.89 0,-2.64 2.6,-4.39 5.7,-4.39 2.8,0 4.7,2.16 5.3,3.05 1.3,-2.09 4.1,-3.05 6.9,-3.05 6.3,0 9.7,6.14 9.7,7.78 0,0.71 -0.8,0.71 -1.2,0.71 -0.6,0 -1,0 -1.2,-0.66 -1.4,-4.53 -5,-6.03 -7,-6.03 -1.9,0 -2.9,0.91 -2.9,2.5 0,1.05 0.7,3.69 1.2,5.53 0.3,1.3 1.5,5.97 1.7,6.77 0.8,3 2.5,4.53 4.2,4.53 0.3,0 1.4,0 2.4,-0.74 z"
           id="path3122" /><path
           style="fill:#000000;stroke-width:0"
           inkscape:connector-curvature="0"
           d="m 1179.7,406.25 0,0.3 0,0.3 0,0.29 0,0.28 -0.1,0.27 0,0.26 -0.1,0.26 0,0.24 -0.1,0.24 0,0.23 -0.1,0.22 -0.1,0.21 -0.1,0.2 -0.1,0.19 -0.1,0.19 -0.1,0.17 -0.1,0.16 -0.1,0.16 -0.1,0.14 -0.1,0.13 -0.1,0.13 -0.2,0.11 -0.1,0.1 -0.2,0.1 -0.1,0.08 -0.2,0.07 -0.1,0.06 -0.2,0.05 -0.2,0.04 -0.1,0.03 -0.2,0.01 -0.2,0.01 c -1.6,0 -2.6,-1.25 -2.6,-2.64 0,-1.34 1,-2.64 2.6,-2.64 0.6,0 1.3,0.2 1.8,0.64 0.1,0.11 0.2,0.16 0.2,0.16 0.1,0 0.1,-0.05 0.1,-0.75 0,-3.69 -1.7,-6.68 -3.4,-8.32 -0.5,-0.54 -0.5,-0.65 -0.5,-0.79 0,-0.36 0.2,-0.55 0.5,-0.55 0.5,0 4.5,3.83 4.5,9.66 z"
           id="path3124" /><path
           style="fill:#000000;stroke-width:0"
           inkscape:connector-curvature="0"
           d="m 1221.8,424.73 0,0.21 0,0.2 0,0.2 0,0.19 -0.1,0.18 0,0.18 0,0.17 0,0.16 -0.1,0.16 0,0.16 -0.1,0.14 0,0.14 -0.1,0.13 0,0.13 -0.1,0.12 -0.1,0.12 0,0.1 -0.1,0.1 -0.1,0.1 -0.1,0.09 0,0.08 -0.1,0.07 -0.1,0.07 -0.1,0.06 -0.1,0.05 -0.1,0.05 -0.1,0.04 -0.1,0.03 -0.1,0.02 -0.1,0.02 -0.1,0.01 -0.1,0 c -1.3,0 -2.6,-1.18 -2.6,-2.34 0,-0.48 0.2,-1.03 0.7,-1.48 0.9,-0.75 1.8,-2.1 1.8,-4.19 0,-2 -1,-4.83 -2.5,-7.13 -1.5,-2.14 -3.4,-3.82 -5.7,-3.82 -2.8,0 -4.4,1.78 -4.8,4.46 0.5,1.3 1.7,4.49 1.7,5.9 0,0.59 -0.3,1.09 -0.9,1.09 -0.4,0 -1,-0.11 -1.4,-0.84 -0.5,-1 -1.1,-4.24 -1.1,-6.04 -1.7,-2.34 -3.7,-4.57 -6.8,-4.57 -3.3,0 -4.3,2.93 -4.3,5.71 0,6.24 5,11.47 5,12.11 0,0.55 -0.3,0.96 -0.9,0.96 -0.7,0 -1,-0.66 -1.3,-1.11 -2.5,-3.69 -4.4,-9.61 -4.4,-14.14 0,-3.44 1.1,-7.13 5.2,-7.13 3.5,0 5.9,2.49 7.7,5.24 0.4,-2.89 2.4,-5.24 5.5,-5.24 3.9,0 6.2,3.03 8,6.78 1.2,2.44 3.1,9.21 3.1,12.3 z"
           id="path3126" /><path
           style="fill:#000000;stroke-width:0"
           inkscape:connector-curvature="0"
           d="m 1238.8,418.65 0,0.37 0,0.39 0,0.39 0,0.41 0,0.84 -0.1,0.88 -0.1,0.92 -0.1,0.95 -0.1,0.97 -0.2,1.01 -0.2,1.02 -0.2,1.03 -0.3,1.05 -0.3,1.06 -0.3,1.07 -0.4,1.07 -0.2,0.53 -0.3,0.53 -0.2,0.53 -0.3,0.53 c -2.9,6.12 -7.2,9.36 -7.7,9.36 -0.3,0 -0.5,-0.19 -0.5,-0.49 0,-0.15 0,-0.25 0.9,-1.15 4.9,-4.92 7.7,-12.85 7.7,-23.27 0,-8.51 -1.8,-17.28 -8,-23.56 -0.6,-0.59 -0.6,-0.7 -0.6,-0.84 0,-0.3 0.2,-0.5 0.5,-0.5 0.5,0 4.9,3.39 7.9,9.71 2.5,5.47 3.1,11 3.1,15.19 z"
           id="path3128" /><text
           xml:space="preserve"
           style="font-style:italic;font-weight:normal;font-size:60.20740888px;line-height:1.25;font-family:'Sitka Banner';letter-spacing:0px;word-spacing:0px;fill:#000000;fill-opacity:1;stroke:none;stroke-width:0.94074076;-inkscape-font-specification:'Sitka Banner, Italic';font-stretch:normal;font-variant:normal;text-anchor:start;text-align:start;writing-mode:lr;font-variant-ligatures:normal;font-variant-caps:normal;font-variant-numeric:normal;font-feature-settings:normal;"
           x="466.35159"
           y="-407.23526"
           id="text188"
           transform="scale(1,-1)"><tspan
             sodipodi:role="line"
             id="tspan186"
             x="466.35159"
             y="-407.23526"
             style="font-style:italic;font-variant:normal;font-weight:normal;font-stretch:normal;font-size:60.20740888px;font-family:'Sitka Banner';-inkscape-font-specification:'Sitka Banner, Italic';font-variant-ligatures:normal;font-variant-caps:normal;font-variant-numeric:normal;font-feature-settings:normal;text-align:start;writing-mode:lr;text-anchor:start;stroke-width:0.94074076;">Y</tspan></text>
</g>    </g>
    <rect
       ry="21.38752"
       y="387.89404"
       x="422.84341"
       height="108.45657"
       width="247.11624"
       id="rect3156"
       style="opacity:0.99645386;fill:none;stroke:#d40606;stroke-width:5.5170002;stroke-linecap:butt;stroke-linejoin:round;stroke-miterlimit:4;stroke-opacity:1;stroke-dasharray:none" />
    <text
       id="text3926"
       y="624.02716"
       x="274.49115"
       style="font-style:normal;font-weight:normal;line-height:0%;font-family:sans-serif;text-align:center;letter-spacing:0px;word-spacing:0px;text-anchor:middle;fill:#d40606;fill-opacity:0.99607843;stroke:none"
       xml:space="preserve"><tspan
         style="font-style:normal;font-variant:normal;font-weight:normal;font-stretch:normal;font-size:40px;line-height:1.25;font-family:UnDotum;-inkscape-font-specification:UnDotum;fill:#d40606;fill-opacity:0.99607843"
         id="tspan3930"
         y="624.02716"
         x="280.85834"
         sodipodi:role="line">Trend (deterministic) </tspan></text>
    <text
       id="text3926-6"
       y="692.05573"
       x="274.75989"
       style="font-style:normal;font-weight:normal;line-height:0%;font-family:sans-serif;text-align:center;letter-spacing:0px;word-spacing:0px;text-anchor:middle;fill:#d40606;fill-opacity:0.99607843;stroke:none"
       xml:space="preserve"><tspan
         id="tspan3957"
         style="font-style:normal;font-variant:normal;font-weight:normal;font-stretch:normal;font-size:40px;line-height:1.25;font-family:UnDotum;-inkscape-font-specification:UnDotum;fill:#d40606;fill-opacity:0.99607843"
         y="692.05573"
         x="274.75989"
         sodipodi:role="line">Linear regression</tspan><tspan
         style="font-style:normal;font-variant:normal;font-weight:normal;font-stretch:normal;font-size:40px;line-height:1.25;font-family:UnDotum;-inkscape-font-specification:UnDotum;fill:#d40606;fill-opacity:0.99607843"
         y="742.05573"
         x="274.75989"
         sodipodi:role="line"
         id="tspan2899">on a fixed basis</tspan></text>
    <rect
       ry="21.38752"
       y="387.6138"
       x="738.94415"
       height="108.45657"
       width="221.96501"
       id="rect3156-4"
       style="opacity:0.99645386;fill:none;stroke:#1706d4;stroke-width:5.22871065;stroke-linecap:butt;stroke-linejoin:round;stroke-miterlimit:4;stroke-opacity:1;stroke-dasharray:none" />
    <text
       id="text3926-1"
       y="697.67291"
       x="806.55524"
       style="font-style:normal;font-weight:normal;line-height:0%;font-family:sans-serif;text-align:center;letter-spacing:0px;word-spacing:0px;text-anchor:middle;fill:#1706d4;fill-opacity:0.99607843;stroke:none"
       xml:space="preserve"><tspan
         style="font-style:normal;font-variant:normal;font-weight:normal;font-stretch:normal;font-size:40px;line-height:1.25;font-family:UnDotum;-inkscape-font-specification:UnDotum;fill:#1706d4;fill-opacity:0.99607843"
         id="tspan3930-0"
         y="697.67291"
         x="806.55524"
         sodipodi:role="line">Gaussian process</tspan><tspan
         id="tspan4000"
         style="font-style:normal;font-variant:normal;font-weight:normal;font-stretch:normal;font-size:40px;line-height:1.25;font-family:UnDotum;-inkscape-font-specification:UnDotum;fill:#1706d4;fill-opacity:0.99607843"
         y="747.67291"
         x="812.92242"
         sodipodi:role="line">with zero mean and </tspan><tspan
         style="font-style:normal;font-variant:normal;font-weight:normal;font-stretch:normal;font-size:40px;line-height:1.25;font-family:UnDotum;-inkscape-font-specification:UnDotum;fill:#1706d4;fill-opacity:0.99607843"
         y="797.67291"
         x="806.55524"
         sodipodi:role="line"
         id="tspan4189">stationary</tspan></text>
    <text
       id="text3926-1-3"
       y="623.26208"
       x="806.94049"
       style="font-style:normal;font-weight:normal;line-height:0%;font-family:sans-serif;text-align:center;letter-spacing:0px;word-spacing:0px;text-anchor:middle;fill:#1706d4;fill-opacity:0.99607843;stroke:none"
       xml:space="preserve"><tspan
         id="tspan4000-5"
         style="font-style:normal;font-variant:normal;font-weight:normal;font-stretch:normal;font-size:40px;line-height:1.25;font-family:UnDotum;-inkscape-font-specification:UnDotum;fill:#1706d4;fill-opacity:0.99607843"
         y="623.26208"
         x="806.94049"
         sodipodi:role="line">Random fluctuations</tspan></text>
    <g
       id="g4070"
       transform="translate(-17.847284,549.42327)"
       style="fill:#1706d5;fill-opacity:0.68627451">
      <g
         word-spacing="normal"
         letter-spacing="normal"
         font-size-adjust="none"
         font-stretch="normal"
         font-weight="normal"
         font-variant="normal"
         font-style="normal"
         stroke-miterlimit="10.433"
         xml:space="preserve"
         transform="matrix(1.0629921,0,0,-1.0629921,-186.02362,789.27165)"
         id="g4072"
         style="font-style:normal;font-variant:normal;font-weight:normal;font-stretch:normal;letter-spacing:normal;word-spacing:normal;text-anchor:start;fill:#1706d5;fill-opacity:0.68627451;stroke:#000000;stroke-linecap:butt;stroke-linejoin:miter;stroke-miterlimit:10.43299961;stroke-opacity:1;stroke-dasharray:none;stroke-dashoffset:0"><path
           id="path4074"
           d="m 488.25,439.64 0,0.15 0,0.16 0,0.08 0,0.07 0,0.08 -0.01,0.07 0,0.07 -0.01,0.07 -0.01,0.07 -0.01,0.07 -0.01,0.06 -0.02,0.06 -0.01,0.06 -0.02,0.06 -0.02,0.06 -0.03,0.05 -0.02,0.05 -0.03,0.05 -0.03,0.04 -0.04,0.05 -0.04,0.03 -0.04,0.04 -0.05,0.03 -0.02,0.01 -0.03,0.02 -0.03,0.01 -0.02,0.01 -0.03,0.01 -0.03,0.01 -0.03,0.01 -0.03,0.01 -0.04,0 -0.03,0.01 -0.04,0 -0.03,0 -0.04,0.01 -0.04,0 c -0.06,0 -0.8,0 -0.91,-0.91 -0.14,-1.39 -1.29,-1.39 -1.64,-1.39 l 0.05,-1.75 c 0.55,0 1.2,0.11 1.59,0.36 v -3.09 c -0.59,0.84 -1.23,1.5 -2.48,2.79 0.25,-0.06 0.64,-0.06 0.89,-0.06 l -0.05,1.75 c -1.75,0 -3.48,0.75 -4.48,1.2 -2.55,1.1 -4.69,1.1 -5.49,1.1 -8.31,0 -17.53,-5.24 -17.53,-17.99 0,-12.7 9.02,-18.04 17.64,-18.04 2.64,0 6.18,0.54 9.82,2.75 2.29,1.43 4.82,3.93 4.82,4.62 0,0.7 -0.75,1 -1.04,1 -0.35,0 -0.55,-0.14 -1.05,-0.7 -2.89,-3.28 -7.31,-5.28 -11.75,-5.28 -7.72,0 -9.67,7.82 -9.67,15.54 h -1.74 c 0,-4.92 0.74,-11.79 5.22,-15.39 -8.17,2.64 -10.5,9.36 -10.5,15.44 0,9.17 5.03,13.61 9.71,15.2 v -0.04 c -1.14,-1.16 -4.43,-5.44 -4.43,-15.21 h 1.74 c 0,9.82 3.59,16.35 8.92,16.35 3.74,0 9.72,-3.64 11.41,-8.92 0.15,-0.44 0.29,-0.94 0.95,-0.94 0.84,0 0.84,0.79 0.84,1.64 z"
           inkscape:connector-curvature="0"
           style="fill:#1706d5;fill-opacity:0.68627451;stroke-width:0" /><path
           id="path4076"
           d="m 514.99,416.86 -0.02,0.59 -0.04,0.59 -0.07,0.58 -0.1,0.57 -0.12,0.56 -0.15,0.55 -0.18,0.54 -0.2,0.53 -0.22,0.51 -0.24,0.5 -0.27,0.49 -0.29,0.47 -0.31,0.46 -0.32,0.44 -0.35,0.43 -0.37,0.4 -0.38,0.39 -0.4,0.37 -0.42,0.35 -0.43,0.32 -0.45,0.31 -0.46,0.28 -0.47,0.26 -0.49,0.24 -0.5,0.21 -0.51,0.18 -0.52,0.16 -0.53,0.13 -0.54,0.11 -0.55,0.07 -0.55,0.05 -0.57,0.01 -0.04,-1.09 c 2.18,0 4.32,-1.1 5.62,-3.24 1.3,-2.14 1.3,-5.03 1.3,-6.92 0,-1.8 0,-4.48 -1.1,-6.67 -1.09,-2.25 -3.28,-3.69 -5.78,-3.69 h 0 c -2.14,0 -4.33,1.05 -5.67,3.33 -1.25,2.2 -1.25,5.23 -1.25,7.03 0,1.94 0,4.63 1.19,6.83 1.36,2.28 3.69,3.33 5.69,3.33 l 0.04,1.09 c -6.22,0 -11.06,-5.42 -11.06,-11.65 0,-6.43 5.19,-11.21 11.02,-11.21 6.03,0 11.06,4.88 11.06,11.21 z"
           inkscape:connector-curvature="0"
           style="fill:#1706d5;fill-opacity:0.68627451;stroke-width:0" /><path
           id="path4078"
           d="m 535.75,422.79 0.05,0.11 0.04,0.12 0.05,0.12 0.06,0.12 0.05,0.13 0.06,0.13 0.07,0.13 0.07,0.14 0.07,0.13 0.09,0.14 0.08,0.14 0.1,0.14 0.1,0.13 0.11,0.14 0.11,0.13 0.12,0.13 0.14,0.12 0.14,0.13 0.15,0.11 0.16,0.12 0.16,0.11 0.18,0.1 0.19,0.09 0.2,0.09 0.21,0.08 0.23,0.07 0.23,0.07 0.25,0.05 0.26,0.05 0.14,0.01 0.14,0.02 0.14,0.01 0.15,0.01 0.15,0.01 0.15,0 v 1.55 c -1.16,-0.1 -2.6,-0.14 -3.74,-0.14 -1.2,0 -3.5,0.09 -4.34,0.14 v -1.55 c 1.84,-0.05 2.39,-1.19 2.39,-2.14 0,-0.44 -0.09,-0.64 -0.3,-1.19 l -5.08,-12.7 -5.57,13.89 c -0.3,0.66 -0.3,0.75 -0.3,0.86 0,1.28 1.94,1.28 2.83,1.28 v 1.55 c -1.49,-0.05 -4.28,-0.14 -5.42,-0.14 -1.35,0 -3.35,0.04 -4.83,0.14 v -1.55 c 3.12,0 3.33,-0.3 3.98,-1.84 l 7.18,-17.67 c 0.29,-0.71 0.38,-0.96 1.04,-0.96 0.64,0 0.84,0.46 1.05,0.96 z"
           inkscape:connector-curvature="0"
           style="fill:#1706d5;fill-opacity:0.68627451;stroke-width:0" /><path
           id="path4080"
           d="m 568.6,421.2 0.05,0.05 0.05,0.05 0.05,0.06 0.05,0.05 0.04,0.05 0.04,0.05 0.02,0.03 0.02,0.03 0.01,0.03 0.02,0.03 0.02,0.03 0.01,0.03 0.01,0.03 0.02,0.03 0.01,0.03 0.01,0.03 0.01,0.03 0.01,0.04 0.01,0.03 0.01,0.04 0,0.04 0.01,0.03 0,0.04 0,0.04 0.01,0.04 0,0.04 c 0,0.38 -0.27,0.38 -0.94,0.38 h -16.27 c -0.9,0 -0.95,-0.03 -1.15,-0.69 l -1.96,-6.28 c -0.14,-0.42 -0.14,-0.45 -0.14,-0.56 0,-0.17 0.14,-0.49 0.6,-0.49 0.45,0 0.53,0.22 0.62,0.57 1.67,4.9 4.39,6.2 8.89,6.2 h 6.27 L 544.7,400.29 c -0.24,-0.23 -0.6,-0.59 -0.6,-1.14 0,-0.39 0.31,-0.39 0.95,-0.39 h 16.86 c 0.91,0 0.94,0.03 1.16,0.7 l 2.5,7.77 c 0.14,0.45 0.14,0.52 0.14,0.56 0,0.03 0,0.49 -0.56,0.49 -0.45,0 -0.52,-0.14 -0.77,-0.91 -1.59,-4.78 -3.37,-7.22 -9.43,-7.22 h -6.66 z"
           inkscape:connector-curvature="0"
           style="fill:#1706d5;fill-opacity:0.68627451;stroke-width:0" /><path
           id="path4082"
           d="m 589.97,394.25 -0.01,0.02 0,0.03 0,0.01 0,0.02 0,0.01 -0.01,0.02 0,0.01 -0.01,0.02 -0.01,0.02 -0.01,0.02 -0.01,0.02 -0.02,0.03 -0.01,0.02 -0.02,0.03 -0.02,0.03 -0.03,0.03 -0.02,0.03 -0.03,0.04 -0.02,0.02 -0.01,0.02 -0.02,0.02 -0.02,0.02 -0.02,0.02 -0.02,0.03 -0.02,0.02 -0.02,0.02 -0.02,0.03 -0.03,0.02 -0.02,0.03 -0.03,0.03 -0.02,0.03 -0.03,0.03 -0.03,0.03 -0.03,0.03 -0.03,0.03 -0.03,0.03 -0.04,0.04 -0.03,0.03 -0.04,0.04 -0.03,0.03 -0.04,0.04 -0.04,0.04 c -6.22,6.28 -7.81,15.69 -7.81,23.31 0,8.67 1.89,17.35 8.01,23.56 0.65,0.61 0.65,0.71 0.65,0.86 0,0.35 -0.19,0.49 -0.49,0.49 -0.5,0 -4.98,-3.38 -7.92,-9.7 -2.55,-5.49 -3.14,-11.02 -3.14,-15.21 0,-3.89 0.55,-9.9 3.28,-15.54 2.98,-6.13 7.28,-9.36 7.78,-9.36 0.3,0 0.49,0.14 0.49,0.5 z"
           inkscape:connector-curvature="0"
           style="fill:#1706d5;fill-opacity:0.68627451;stroke-width:0" /><path
           id="path4084"
           d="m 619.5,426.18 -0.17,-0.05 -0.16,-0.05 -0.15,-0.07 -0.15,-0.07 -0.15,-0.07 -0.14,-0.08 -0.13,-0.09 -0.13,-0.09 -0.12,-0.1 -0.12,-0.1 -0.11,-0.1 -0.11,-0.11 -0.1,-0.11 -0.1,-0.11 -0.09,-0.12 -0.09,-0.12 -0.08,-0.12 -0.08,-0.12 -0.07,-0.13 -0.06,-0.13 -0.06,-0.12 -0.06,-0.13 -0.05,-0.13 -0.04,-0.13 -0.04,-0.12 -0.03,-0.13 -0.03,-0.13 -0.03,-0.12 -0.01,-0.13 -0.02,-0.12 -0.01,-0.12 0,-0.11 c 0,-1.11 0.85,-2.3 2.49,-2.3 1.75,0 3.59,1.44 3.59,3.89 0,2.64 -2.64,4.37 -5.69,4.37 -2.82,0 -4.67,-2.14 -5.32,-3.03 -1.24,2.1 -4.04,3.03 -6.88,3.03 -6.28,0 -9.66,-6.12 -9.66,-7.76 0,-0.7 0.74,-0.7 1.19,-0.7 0.59,0 0.95,0 1.14,0.65 1.45,4.53 5.05,6.02 7.08,6.02 1.89,0 2.8,-0.89 2.8,-2.49 0,-0.95 -0.71,-3.68 -1.16,-5.48 l -1.69,-6.83 c -0.75,-3.03 -2.54,-4.53 -4.23,-4.53 -0.25,0 -1.39,0 -2.39,0.75 1.8,0.5 2.69,2.19 2.69,3.44 0,1.09 -0.85,2.29 -2.49,2.29 -1.75,0 -3.59,-1.45 -3.59,-3.89 0,-2.64 2.64,-4.39 5.69,-4.39 2.82,0 4.67,2.16 5.32,3.05 1.25,-2.09 4.03,-3.05 6.88,-3.05 6.28,0 9.65,6.14 9.65,7.78 0,0.71 -0.73,0.71 -1.18,0.71 -0.6,0 -0.96,0 -1.14,-0.66 -1.46,-4.53 -5.03,-6.03 -7.08,-6.03 -1.89,0 -2.8,0.91 -2.8,2.5 0,1.05 0.66,3.69 1.09,5.53 0.36,1.3 1.5,5.97 1.76,6.77 0.74,3 2.48,4.53 4.23,4.53 0.25,0 1.39,0 2.39,-0.74 z"
           inkscape:connector-curvature="0"
           style="fill:#1706d5;fill-opacity:0.68627451;stroke-width:0" /><path
           id="path4086"
           d="m 635.78,406.25 0,0.3 -0.01,0.3 -0.02,0.29 -0.02,0.28 -0.03,0.27 -0.04,0.26 -0.05,0.26 -0.05,0.24 -0.06,0.24 -0.06,0.23 -0.07,0.22 -0.08,0.21 -0.08,0.2 -0.09,0.19 -0.1,0.19 -0.1,0.17 -0.1,0.16 -0.11,0.16 -0.12,0.14 -0.13,0.13 -0.12,0.13 -0.14,0.11 -0.14,0.1 -0.14,0.1 -0.15,0.08 -0.15,0.07 -0.16,0.06 -0.16,0.05 -0.17,0.04 -0.17,0.03 -0.18,0.01 -0.18,0.01 c -1.64,0 -2.64,-1.25 -2.64,-2.64 0,-1.34 1,-2.64 2.64,-2.64 0.59,0 1.25,0.2 1.75,0.64 0.14,0.11 0.2,0.16 0.25,0.16 0.05,0 0.09,-0.05 0.09,-0.75 0,-3.69 -1.73,-6.68 -3.39,-8.32 -0.55,-0.54 -0.55,-0.65 -0.55,-0.79 0,-0.36 0.25,-0.55 0.5,-0.55 0.55,0 4.53,3.83 4.53,9.66 z"
           inkscape:connector-curvature="0"
           style="fill:#1706d5;fill-opacity:0.68627451;stroke-width:0" /><path
           id="path4088"
           d="m 674.46,426.18 -0.17,-0.05 -0.16,-0.05 -0.15,-0.07 -0.15,-0.07 -0.15,-0.07 -0.14,-0.08 -0.13,-0.09 -0.13,-0.09 -0.12,-0.1 -0.12,-0.1 -0.12,-0.1 -0.1,-0.11 -0.11,-0.11 -0.09,-0.11 -0.09,-0.12 -0.09,-0.12 -0.08,-0.12 -0.08,-0.12 -0.07,-0.13 -0.06,-0.13 -0.06,-0.12 -0.06,-0.13 -0.05,-0.13 -0.04,-0.13 -0.04,-0.12 -0.04,-0.13 -0.02,-0.13 -0.03,-0.12 -0.02,-0.13 -0.01,-0.12 -0.01,-0.12 0,-0.11 c 0,-1.11 0.84,-2.3 2.48,-2.3 1.75,0 3.6,1.44 3.6,3.89 0,2.64 -2.64,4.37 -5.69,4.37 -2.83,0 -4.67,-2.14 -5.33,-3.03 -1.23,2.1 -4.03,3.03 -6.87,3.03 -6.28,0 -9.66,-6.12 -9.66,-7.76 0,-0.7 0.73,-0.7 1.19,-0.7 0.59,0 0.95,0 1.14,0.65 1.45,4.53 5.05,6.02 7.08,6.02 1.89,0 2.79,-0.89 2.79,-2.49 0,-0.95 -0.7,-3.68 -1.15,-5.48 l -1.69,-6.83 c -0.75,-3.03 -2.55,-4.53 -4.23,-4.53 -0.25,0 -1.4,0 -2.4,0.75 1.8,0.5 2.69,2.19 2.69,3.44 0,1.09 -0.84,2.29 -2.48,2.29 -1.75,0 -3.59,-1.45 -3.59,-3.89 0,-2.64 2.63,-4.39 5.68,-4.39 2.83,0 4.67,2.16 5.33,3.05 1.25,-2.09 4.03,-3.05 6.87,-3.05 6.29,0 9.66,6.14 9.66,7.78 0,0.71 -0.73,0.71 -1.19,0.71 -0.59,0 -0.95,0 -1.14,-0.66 -1.45,-4.53 -5.03,-6.03 -7.08,-6.03 -1.88,0 -2.79,0.91 -2.79,2.5 0,1.05 0.66,3.69 1.09,5.53 0.36,1.3 1.5,5.97 1.75,6.77 0.75,3 2.49,4.53 4.24,4.53 0.25,0 1.39,0 2.39,-0.74 z"
           inkscape:connector-curvature="0"
           style="fill:#1706d5;fill-opacity:0.68627451;stroke-width:0" /><path
           id="path4090"
           d="m 692.91,442.02 0.04,0.08 0.05,0.08 0.04,0.08 0.04,0.08 0.03,0.08 0.04,0.08 0.03,0.08 0.03,0.08 0.01,0.04 0.02,0.05 0.01,0.04 0.01,0.05 0.01,0.05 0.01,0.04 0.01,0.05 0.01,0.06 0,0.05 0.01,0.05 0.01,0.06 0,0.06 0,0.06 0.01,0.06 0,0.07 0,0.07 c 0,1.81 -1.67,2.75 -2.89,2.75 -1.05,0 -2.06,-0.57 -2.58,-1.96 l -5.41,-14.5 c -0.2,-0.48 -0.2,-0.54 -0.2,-0.65 0,-0.11 0,-0.38 0.37,-0.6 0.32,-0.17 1.82,-0.87 2.02,-0.87 0.39,0 0.45,0.19 0.74,0.67 z"
           inkscape:connector-curvature="0"
           style="fill:#1706d5;fill-opacity:0.68627451;stroke-width:0" /><path
           id="path4092"
           d="m 710.99,418.65 0,0.37 0,0.39 -0.01,0.39 -0.02,0.41 -0.04,0.84 -0.06,0.88 -0.08,0.92 -0.11,0.95 -0.13,0.97 -0.16,1.01 -0.2,1.02 -0.23,1.03 -0.27,1.05 -0.3,1.06 -0.35,1.07 -0.39,1.07 -0.22,0.53 -0.22,0.53 -0.24,0.53 -0.25,0.53 c -2.98,6.12 -7.26,9.36 -7.76,9.36 -0.3,0 -0.5,-0.19 -0.5,-0.49 0,-0.15 0,-0.25 0.93,-1.15 4.89,-4.92 7.74,-12.85 7.74,-23.27 0,-8.51 -1.85,-17.28 -8.03,-23.56 -0.64,-0.59 -0.64,-0.7 -0.64,-0.84 0,-0.3 0.2,-0.5 0.5,-0.5 0.5,0 4.96,3.39 7.92,9.71 2.53,5.47 3.12,11 3.12,15.19 z"
           inkscape:connector-curvature="0"
           style="fill:#1706d5;fill-opacity:0.68627451;stroke-width:0" /><path
           id="path4094"
           d="m 777.87,422.5 0.14,0 0.14,0 0.15,0 0.07,0.01 0.07,0 0.08,0.01 0.07,0.01 0.07,0.01 0.07,0.01 0.07,0.01 0.06,0.02 0.07,0.02 0.06,0.02 0.06,0.02 0.06,0.03 0.06,0.03 0.05,0.04 0.05,0.03 0.05,0.05 0.04,0.04 0.04,0.05 0.02,0.03 0.01,0.03 0.02,0.02 0.02,0.03 0.01,0.03 0.01,0.04 0.02,0.03 0.01,0.04 0.01,0.03 0,0.04 0.01,0.04 0.01,0.04 0,0.04 0.01,0.04 0,0.04 0,0.05 c 0,1 -0.96,1 -1.64,1 h -29.85 c -0.7,0 -1.64,0 -1.64,-1 0,-0.98 0.94,-0.98 1.69,-0.98 z"
           inkscape:connector-curvature="0"
           style="fill:#1706d5;fill-opacity:0.68627451;stroke-width:0" /><path
           id="path4096"
           d="m 777.92,412.82 0.06,0 0.07,0 0.14,0.01 0.13,0 0.07,0 0.07,0.01 0.07,0.01 0.07,0 0.07,0.01 0.07,0.02 0.07,0.01 0.06,0.02 0.06,0.02 0.07,0.02 0.06,0.02 0.05,0.03 0.06,0.03 0.05,0.04 0.05,0.04 0.05,0.04 0.04,0.05 0.02,0.02 0.02,0.03 0.02,0.02 0.01,0.03 0.02,0.03 0.02,0.03 0.01,0.03 0.01,0.03 0.02,0.04 0.01,0.03 0.01,0.04 0,0.04 0.01,0.04 0.01,0.04 0,0.04 0.01,0.04 0,0.05 0,0.04 c 0,1 -0.96,1 -1.69,1 h -29.75 c -0.75,0 -1.69,0 -1.69,-1 0,-1 0.94,-1 1.64,-1 z"
           inkscape:connector-curvature="0"
           style="fill:#1706d5;fill-opacity:0.68627451;stroke-width:0" /><path
           id="path4098"
           d="m 835.93,424.78 0.06,0 0.07,0 0.07,0 0.08,0 0.09,0 0.09,0.01 0.09,0 0.1,0.01 0.09,0.01 0.1,0.02 0.11,0.02 0.1,0.02 0.1,0.02 0.1,0.03 0.1,0.03 0.1,0.04 0.1,0.04 0.1,0.05 0.09,0.05 0.09,0.06 0.09,0.07 0.08,0.07 0.04,0.04 0.03,0.04 0.04,0.04 0.03,0.05 0.03,0.04 0.04,0.05 0.03,0.05 0.02,0.05 0.03,0.05 0.02,0.06 0.02,0.06 0.02,0.06 0.02,0.06 0.02,0.06 0.01,0.07 0.01,0.07 0.01,0.07 0.01,0.08 0,0.07 0,0.08 c 0,1.19 -1.04,1.19 -1.93,1.19 h -11.36 c -7.54,0 -13.07,-8.22 -13.07,-14.14 0,-4.39 2.94,-7.88 7.47,-7.88 l 0.06,1.1 c -2.45,0 -4.43,1.79 -4.43,5.37 0,1.5 0.59,5.59 2.34,8.53 2.09,3.44 5.08,4.13 6.77,4.13 4.19,0 4.59,-3.28 4.59,-4.83 0,-2.34 -1,-6.42 -2.69,-8.97 -1.95,-2.94 -4.64,-4.23 -6.58,-4.23 h 0 l -0.06,-1.1 c 5.89,0 12.52,6.03 12.52,13.71 0,0.84 0,3.23 -1.55,5.42 z"
           inkscape:connector-curvature="0"
           style="fill:#1706d5;fill-opacity:0.68627451;stroke-width:0" /><path
           id="path4100"
           d="m 857.95,433.06 h -1.18 c -0.1,-0.76 -0.46,-2.83 -0.91,-3.17 -0.27,-0.2 -2.95,-0.2 -3.44,-0.2 H 846 c 3.66,3.23 4.88,4.2 6.97,5.84 2.58,2.06 4.98,4.22 4.98,7.53 0,4.22 -3.68,6.8 -8.15,6.8 -4.32,0 -7.25,-3.03 -7.25,-6.24 0,-1.78 1.5,-1.95 1.86,-1.95 0.82,0 1.84,0.6 1.84,1.85 0,0.62 -0.25,1.84 -2.06,1.84 1.08,2.47 3.45,3.23 5.09,3.23 3.49,0 5.3,-2.7 5.3,-5.53 0,-3.03 -2.16,-5.44 -3.28,-6.68 l -8.39,-8.3 c -0.36,-0.31 -0.36,-0.39 -0.36,-1.36 h 14.36 z"
           inkscape:connector-curvature="0"
           style="fill:#1706d5;fill-opacity:0.68627451;stroke-width:0" /><path
           id="path4102"
           d="m 864.32,397.57 -0.01,-0.02 0,-0.03 -0.01,-0.03 0,-0.02 -0.01,-0.03 -0.01,-0.02 0,-0.02 -0.01,-0.03 0,-0.02 -0.01,-0.02 0,-0.02 0,-0.02 -0.01,-0.02 0,-0.02 -0.01,-0.04 -0.01,-0.03 0,-0.03 -0.01,-0.03 -0.01,-0.03 0,-0.03 -0.01,-0.02 0,-0.02 0,-0.03 -0.01,-0.02 0,-0.02 0,-0.01 0,-0.02 0,-0.01 -0.01,-0.02 0,-0.01 0,-0.02 0,-0.01 0,-0.01 0,-0.02 0,-0.02 0,-0.02 c 0,-0.74 0.55,-1.35 1.39,-1.35 1.05,0 1.64,0.91 1.75,1.05 0.23,0.45 1.84,7.13 3.19,12.52 0.98,-2 2.58,-3.35 4.92,-3.35 l -0.05,1.1 c -3.48,0 -4.28,3.98 -4.28,4.43 0,0.21 0.25,1.19 0.39,1.85 1.41,5.58 1.91,7.37 3,9.36 2.14,3.64 4.63,4.73 6.17,4.73 1.85,0 3.44,-1.44 3.44,-4.87 0,-2.75 -1.44,-8.33 -2.78,-10.77 -1.66,-3.14 -4.05,-4.73 -5.94,-4.73 h 0 l 0.05,-1.1 c 5.83,0 12.27,7.03 12.27,14.46 0,5.28 -3.3,8.1 -6.94,8.1 -4.83,0 -10.06,-4.98 -11.55,-11.06 z"
           inkscape:connector-curvature="0"
           style="fill:#1706d5;fill-opacity:0.68627451;stroke-width:0" /><path
           id="path4104"
           d="m 904.96,394.25 0,0.02 0,0.03 0,0.01 0,0.02 -0.01,0.01 0,0.02 -0.01,0.01 0,0.02 -0.01,0.02 -0.01,0.02 -0.02,0.02 -0.01,0.03 -0.02,0.02 -0.01,0.03 -0.03,0.03 -0.02,0.03 -0.03,0.03 -0.03,0.04 -0.01,0.02 -0.02,0.02 -0.01,0.02 -0.02,0.02 -0.02,0.02 -0.02,0.03 -0.02,0.02 -0.03,0.02 -0.02,0.03 -0.02,0.02 -0.03,0.03 -0.02,0.03 -0.03,0.03 -0.03,0.03 -0.02,0.03 -0.03,0.03 -0.04,0.03 -0.03,0.03 -0.03,0.04 -0.03,0.03 -0.04,0.04 -0.04,0.03 -0.03,0.04 -0.04,0.04 c -6.22,6.28 -7.82,15.69 -7.82,23.31 0,8.67 1.9,17.35 8.02,23.56 0.64,0.61 0.64,0.71 0.64,0.86 0,0.35 -0.19,0.49 -0.48,0.49 -0.5,0 -4.99,-3.38 -7.93,-9.7 -2.54,-5.49 -3.14,-11.02 -3.14,-15.21 0,-3.89 0.55,-9.9 3.29,-15.54 2.98,-6.13 7.28,-9.36 7.78,-9.36 0.29,0 0.48,0.14 0.48,0.5 z"
           inkscape:connector-curvature="0"
           style="fill:#1706d5;fill-opacity:0.68627451;stroke-width:0" /><path
           id="path4106"
           d="m 916.35,441.87 0,0.15 0,0.15 0,0.15 -0.01,0.08 0,0.07 -0.01,0.07 -0.01,0.08 0,0.07 -0.02,0.07 -0.01,0.06 -0.02,0.07 -0.02,0.06 -0.02,0.06 -0.02,0.06 -0.03,0.06 -0.03,0.05 -0.04,0.06 -0.03,0.04 -0.04,0.05 -0.05,0.04 -0.05,0.04 -0.03,0.01 -0.02,0.02 -0.03,0.02 -0.03,0.01 -0.03,0.02 -0.04,0.01 -0.03,0.01 -0.03,0.01 -0.04,0.01 -0.04,0.01 -0.04,0 -0.04,0.01 -0.04,0 -0.04,0.01 -0.04,0 -0.05,0 c -1,0 -1,-1.1 -1,-1.85 v -46.12 c 0,-0.8 0,-1.84 1,-1.84 0.98,0 0.98,0.89 0.98,1.68 z"
           inkscape:connector-curvature="0"
           style="fill:#1706d5;fill-opacity:0.68627451;stroke-width:0" /><path
           id="path4108"
           d="m 926.07,441.71 0,0.16 0,0.15 0,0.16 -0.01,0.16 -0.01,0.08 -0.01,0.08 -0.01,0.07 -0.01,0.08 -0.01,0.07 -0.02,0.08 -0.02,0.07 -0.02,0.07 -0.03,0.06 -0.02,0.07 -0.04,0.06 -0.03,0.06 -0.04,0.05 -0.04,0.05 -0.05,0.05 -0.05,0.04 -0.02,0.02 -0.03,0.02 -0.03,0.02 -0.03,0.02 -0.03,0.01 -0.04,0.02 -0.03,0.01 -0.04,0.01 -0.03,0.01 -0.04,0.01 -0.04,0.01 -0.04,0.01 -0.04,0 -0.05,0.01 -0.04,0 -0.05,0 c -0.98,0 -0.98,-0.89 -0.98,-1.69 v -46.44 c 0,-0.79 0,-1.68 0.98,-1.68 1,0 1,1.09 1,1.84 z"
           inkscape:connector-curvature="0"
           style="fill:#1706d5;fill-opacity:0.68627451;stroke-width:0" /><path
           id="path4110"
           d="m 959.45,426.18 -0.16,-0.05 -0.16,-0.05 -0.16,-0.07 -0.15,-0.07 -0.14,-0.07 -0.14,-0.08 -0.14,-0.09 -0.12,-0.09 -0.13,-0.1 -0.12,-0.1 -0.11,-0.1 -0.11,-0.11 -0.1,-0.11 -0.1,-0.11 -0.09,-0.12 -0.08,-0.12 -0.09,-0.12 -0.07,-0.12 -0.07,-0.13 -0.07,-0.13 -0.06,-0.12 -0.05,-0.13 -0.05,-0.13 -0.05,-0.13 -0.04,-0.12 -0.03,-0.13 -0.03,-0.13 -0.02,-0.12 -0.02,-0.13 -0.01,-0.12 -0.01,-0.12 0,-0.11 c 0,-1.11 0.84,-2.3 2.48,-2.3 1.75,0 3.59,1.44 3.59,3.89 0,2.64 -2.64,4.37 -5.68,4.37 -2.83,0 -4.68,-2.14 -5.33,-3.03 -1.24,2.1 -4.03,3.03 -6.88,3.03 -6.28,0 -9.65,-6.12 -9.65,-7.76 0,-0.7 0.73,-0.7 1.18,-0.7 0.6,0 0.96,0 1.14,0.65 1.46,4.53 5.05,6.02 7.08,6.02 1.89,0 2.8,-0.89 2.8,-2.49 0,-0.95 -0.7,-3.68 -1.16,-5.48 l -1.68,-6.83 c -0.75,-3.03 -2.55,-4.53 -4.24,-4.53 -0.25,0 -1.39,0 -2.39,0.75 1.8,0.5 2.69,2.19 2.69,3.44 0,1.09 -0.84,2.29 -2.49,2.29 -1.75,0 -3.59,-1.45 -3.59,-3.89 0,-2.64 2.64,-4.39 5.69,-4.39 2.83,0 4.67,2.16 5.33,3.05 1.25,-2.09 4.03,-3.05 6.87,-3.05 6.28,0 9.66,6.14 9.66,7.78 0,0.71 -0.74,0.71 -1.19,0.71 -0.59,0 -0.95,0 -1.14,-0.66 -1.45,-4.53 -5.03,-6.03 -7.08,-6.03 -1.89,0 -2.8,0.91 -2.8,2.5 0,1.05 0.66,3.69 1.1,5.53 0.36,1.3 1.5,5.97 1.75,6.77 0.75,3 2.48,4.53 4.23,4.53 0.25,0 1.39,0 2.39,-0.74 z"
           inkscape:connector-curvature="0"
           style="fill:#1706d5;fill-opacity:0.68627451;stroke-width:0" /><path
           id="path4112"
           d="m 1009.4,417.65 0.1,0 0.2,0 0.2,0.01 0,0 0.1,0.01 0.1,0 0.1,0.01 0,0.01 0.1,0.01 0.1,0.02 0,0.02 0.1,0.02 0.1,0.02 0,0.02 0.1,0.03 0,0.03 0.1,0.04 0,0.03 0.1,0.05 0,0.04 0.1,0.05 0,0.03 0,0.03 0,0.03 0,0.03 0.1,0.03 0,0.03 0,0.04 0,0.03 0,0.04 0,0.04 0,0.04 0,0.04 0,0.04 0,0.04 0,0.05 0,0.04 c 0,1 -0.9,1 -1.7,1 h -26.97 c -0.85,0 -1.74,0 -1.74,-1 0,-1 0.89,-1 1.74,-1 z"
           inkscape:connector-curvature="0"
           style="fill:#1706d5;fill-opacity:0.68627451;stroke-width:0" /><path
           id="path4114"
           d="m 1053.1,426.18 -0.2,-0.05 -0.2,-0.05 -0.1,-0.07 -0.2,-0.07 -0.1,-0.07 -0.2,-0.08 -0.1,-0.09 -0.1,-0.09 -0.2,-0.1 -0.1,-0.1 -0.1,-0.1 -0.1,-0.11 -0.1,-0.11 -0.1,-0.11 -0.1,-0.12 -0.1,-0.12 -0.1,-0.12 0,-0.12 -0.1,-0.13 -0.1,-0.13 0,-0.12 -0.1,-0.13 0,-0.13 -0.1,-0.13 0,-0.12 0,-0.13 -0.1,-0.13 0,-0.12 0,-0.13 0,-0.12 0,-0.12 0,-0.11 c 0,-1.11 0.8,-2.3 2.4,-2.3 1.8,0 3.6,1.44 3.6,3.89 0,2.64 -2.6,4.37 -5.6,4.37 -2.9,0 -4.7,-2.14 -5.4,-3.03 -1.2,2.1 -4,3.03 -6.8,3.03 -6.3,0 -9.7,-6.12 -9.7,-7.76 0,-0.7 0.7,-0.7 1.2,-0.7 0.6,0 0.9,0 1.1,0.65 1.5,4.53 5.1,6.02 7.1,6.02 1.9,0 2.8,-0.89 2.8,-2.49 0,-0.95 -0.7,-3.68 -1.2,-5.48 l -1.7,-6.83 c -0.7,-3.03 -2.5,-4.53 -4.2,-4.53 -0.2,0 -1.4,0 -2.4,0.75 1.8,0.5 2.7,2.19 2.7,3.44 0,1.09 -0.8,2.29 -2.5,2.29 -1.7,0 -3.6,-1.45 -3.6,-3.89 0,-2.64 2.7,-4.39 5.7,-4.39 2.9,0 4.7,2.16 5.3,3.05 1.3,-2.09 4.1,-3.05 6.9,-3.05 6.3,0 9.7,6.14 9.7,7.78 0,0.71 -0.7,0.71 -1.2,0.71 -0.6,0 -1,0 -1.1,-0.66 -1.5,-4.53 -5.1,-6.03 -7.1,-6.03 -1.9,0 -2.8,0.91 -2.8,2.5 0,1.05 0.6,3.69 1.1,5.53 0.3,1.3 1.5,5.97 1.7,6.77 0.8,3 2.5,4.53 4.3,4.53 0.2,0 1.4,0 2.4,-0.74 z"
           inkscape:connector-curvature="0"
           style="fill:#1706d5;fill-opacity:0.68627451;stroke-width:0" /><path
           id="path4116"
           d="m 1071.5,442.02 0,0.08 0.1,0.08 0,0.08 0.1,0.08 0,0.08 0,0.08 0.1,0.08 0,0.08 0,0.04 0,0.05 0,0.04 0.1,0.05 0,0.05 0,0.04 0,0.05 0,0.06 0,0.05 0,0.05 0,0.06 0,0.06 0,0.06 0,0.06 0,0.07 0,0.07 c 0,1.81 -1.7,2.75 -2.9,2.75 -1,0 -2,-0.57 -2.5,-1.96 l -5.4,-14.5 c -0.3,-0.48 -0.3,-0.54 -0.3,-0.65 0,-0.11 0,-0.38 0.4,-0.6 0.3,-0.17 1.8,-0.87 2,-0.87 0.4,0 0.5,0.19 0.8,0.67 z"
           inkscape:connector-curvature="0"
           style="fill:#1706d5;fill-opacity:0.68627451;stroke-width:0" /><path
           id="path4118"
           d="m 1083.8,441.87 0,0.15 0,0.15 0,0.15 -0.1,0.08 0,0.07 0,0.07 0,0.08 0,0.07 0,0.07 0,0.06 0,0.07 0,0.06 -0.1,0.06 0,0.06 0,0.06 0,0.05 -0.1,0.06 0,0.04 -0.1,0.05 0,0.04 -0.1,0.04 0,0.01 0,0.02 0,0.02 -0.1,0.01 0,0.02 0,0.01 -0.1,0.01 0,0.01 0,0.01 -0.1,0.01 0,0 0,0.01 -0.1,0 0,0.01 -0.1,0 0,0 c -1,0 -1,-1.1 -1,-1.85 v -46.12 c 0,-0.8 0,-1.84 1,-1.84 1,0 1,0.89 1,1.68 z"
           inkscape:connector-curvature="0"
           style="fill:#1706d5;fill-opacity:0.68627451;stroke-width:0" /><path
           id="path4120"
           d="m 1093.5,441.71 0,0.16 0,0.15 0,0.16 0,0.16 0,0.08 -0.1,0.08 0,0.07 0,0.08 0,0.07 0,0.08 0,0.07 0,0.07 -0.1,0.06 0,0.07 0,0.06 -0.1,0.06 0,0.05 0,0.05 -0.1,0.05 0,0.04 -0.1,0.02 0,0.02 0,0.02 -0.1,0.02 0,0.01 0,0.02 -0.1,0.01 0,0.01 0,0.01 -0.1,0.01 0,0.01 0,0.01 -0.1,0 0,0.01 -0.1,0 0,0 c -1,0 -1,-0.89 -1,-1.69 v -46.44 c 0,-0.79 0,-1.68 1,-1.68 1,0 1,1.09 1,1.84 z"
           inkscape:connector-curvature="0"
           style="fill:#1706d5;fill-opacity:0.68627451;stroke-width:0" /><path
           id="path4122"
           d="m 1114.6,418.65 -0.1,0.37 0,0.39 0,0.39 0,0.41 0,0.84 -0.1,0.88 -0.1,0.92 -0.1,0.95 -0.1,0.97 -0.2,1.01 -0.2,1.02 -0.2,1.03 -0.3,1.05 -0.3,1.06 -0.3,1.07 -0.4,1.07 -0.2,0.53 -0.2,0.53 -0.3,0.53 -0.2,0.53 c -3,6.12 -7.3,9.36 -7.8,9.36 -0.3,0 -0.5,-0.19 -0.5,-0.49 0,-0.15 0,-0.25 0.9,-1.15 4.9,-4.92 7.8,-12.85 7.8,-23.27 0,-8.51 -1.9,-17.28 -8.1,-23.56 -0.6,-0.59 -0.6,-0.7 -0.6,-0.84 0,-0.3 0.2,-0.5 0.5,-0.5 0.5,0 5,3.39 7.9,9.71 2.5,5.47 3.2,11 3.2,15.19 z"
           inkscape:connector-curvature="0"
           style="fill:#1706d5;fill-opacity:0.68627451;stroke-width:0" /></g>    </g>
  </g>
</svg>
